# xmcd
#
# Track frame offsets:
#	150
#	12999
#	27656
#	42560
#	60015
#	76253
#	89878
#	104776
#	119665
#	134543
#	151101
#	166323
#	178521
#	192475
#	209523
#	226618
#	241586
#	257735
#	272522
#	289378
#	304147
#	319121
#
# Disc length: 4452 seconds
#
# Revision: 3
# Processed by: cddbd v1.4PL0 Copyright (c) Steve Scherf et al.
# Submitted via: MusicManager 7.0.0.0 
#
DISCID=3a116216
DTITLE=Various Artist - Contemporary Country - The Late 80's - Pure Gold
DYEAR=1992
DGENRE=
TTITLE0=Dwight Yoakam and Buck Owens - Streets Of Bakersfield
TTITLE1=Patty Loveless - Blue Side Of Town
TTITLE2=Rodney Crowell - I Couldn't Leave You If I Tried
TTITLE3=Roseanne Cash - The Way We Make A Broken Heart
TTITLE4=Keith Whitley - Don't Close Your Eyes
TTITLE5=Shenondoah - The Church On Cumberland Road
TTITLE6=T. Graham Brown - Darlene
TTITLE7=Highway 101 - Somewhere Tonight
TTITLE8=Reba McEntire - The Last One To Know
TTITLE9=Randy Travis - Deeper Than The Holler
TTITLE10=Ricky Van Shelton - Living Proof
TTITLE11=Hank Williams Jr. - Born To Boogie
TTITLE12=The Oak Ridge Boys - This Crazy Love
TTITLE13=Southern Pacific - New Shade Of Blue
TTITLE14=Tanya Tucker - Love Me Like You Used To
TTITLE15=Steve Wariner - I Got Dreams
TTITLE16=The Judds - Change Of Heart
TTITLE17=Alabama - Song Of The South
TTITLE18=K.T. Oslin - Do Ya'
TTITLE19=The Nitty Gritty Dirt Band - I've Been Looking
TTITLE20=The Forester Sisters - (I'd Choose) You Again
TTITLE21=Michael Martin Murphey - A Ling Line Of Love
EXTD=Added Artists Names
EXTT0=Dwight Yoakam and Buck Owens\n
EXTT1=Patty Loveless\n
EXTT2=Rodney Crowell\n
EXTT3=Rosanne Cash\n
EXTT4=Keith Whitley\n
EXTT5=Shenandoah\n
EXTT6=T. Graham Brown\n
EXTT7=Highway 101\n
EXTT8=Reba McEntire\n
EXTT9=Randy Travis\n
EXTT10=Ricky Van Shelton\n
EXTT11=Hank Williams Jr.\n
EXTT12=Oak Ridge Boys\n
EXTT13=Southern Pacific\n
EXTT14=Tanya Tucker\n
EXTT15=Steve Wariner\n
EXTT16=The Judds\n
EXTT17=Alabama\n
EXTT18=K.T. Oslin\n
EXTT19=The Nitty Gritty Dirt Band\n
EXTT20=The Forester Sisters\n
EXTT21=Michael Martin Murphey\n
PLAYORDER=
